<svg xmlns="http://www.w3.org/2000/svg" class="oi-chart" viewBox="0 0 1000 360" role="img" aria-label="ASML open interest by strike">

    <style>
      .grid-line { stroke: #e5e7eb; stroke-width: 1; }
      .grid-line.faint { stroke: #f1f5f9; }
      .axis-line { stroke: #9ca3af; stroke-width: 1; }
      .axis-text { fill: #6b7280; font: 11px system-ui, sans-serif; }
      .series { fill: none; stroke-width: 2.6; stroke-linejoin: round; stroke-linecap: round; }
      .series.calls { stroke: #059669; }
      .series.puts { stroke: #dc2626; }
      .dot { stroke: white; stroke-width: 1; }
      .call-dot { fill: #059669; }
      .put-dot { fill: #dc2626; }
      .price-line { stroke: #111827; stroke-width: 1.4; stroke-dasharray: 5 5; }
    </style>
  
      <rect x="0" y="0" width="1000" height="360" fill="transparent"></rect>
      
          <line x1="64" y1="314.00" x2="974" y2="314.00" class="grid-line"></line>
          <text x="52" y="318.00" text-anchor="end" class="axis-text">0</text>
        
          <line x1="64" y1="241.00" x2="974" y2="241.00" class="grid-line"></line>
          <text x="52" y="245.00" text-anchor="end" class="axis-text">252</text>
        
          <line x1="64" y1="168.00" x2="974" y2="168.00" class="grid-line"></line>
          <text x="52" y="172.00" text-anchor="end" class="axis-text">505</text>
        
          <line x1="64" y1="95.00" x2="974" y2="95.00" class="grid-line"></line>
          <text x="52" y="99.00" text-anchor="end" class="axis-text">757</text>
        
          <line x1="64" y1="22.00" x2="974" y2="22.00" class="grid-line"></line>
          <text x="52" y="26.00" text-anchor="end" class="axis-text">1,009</text>
        
      
          <line x1="64.00" y1="22" x2="64.00" y2="314" class="grid-line faint"></line>
          <text x="64.00" y="344" text-anchor="middle" class="axis-text">$1183.95</text>
        
          <line x1="246.00" y1="22" x2="246.00" y2="314" class="grid-line faint"></line>
          <text x="246.00" y="344" text-anchor="middle" class="axis-text">$1403.37</text>
        
          <line x1="428.00" y1="22" x2="428.00" y2="314" class="grid-line faint"></line>
          <text x="428.00" y="344" text-anchor="middle" class="axis-text">$1622.79</text>
        
          <line x1="610.00" y1="22" x2="610.00" y2="314" class="grid-line faint"></line>
          <text x="610.00" y="344" text-anchor="middle" class="axis-text">$1842.21</text>
        
          <line x1="792.00" y1="22" x2="792.00" y2="314" class="grid-line faint"></line>
          <text x="792.00" y="344" text-anchor="middle" class="axis-text">$2061.63</text>
        
          <line x1="974.00" y1="22" x2="974.00" y2="314" class="grid-line faint"></line>
          <text x="974.00" y="344" text-anchor="middle" class="axis-text">$2281.05</text>
        
      <line x1="64" y1="314" x2="974" y2="314" class="axis-line"></line>
      <line x1="64" y1="22" x2="64" y2="314" class="axis-line"></line>
      
        <line x1="521.24" y1="22" x2="521.24" y2="314" class="price-line"></line>
      
      <path d="M89.75,314.00 L93.90,313.71 L98.05,313.71 L102.20,314.00 L106.34,314.00 L110.49,313.71 L114.64,314.00 L118.79,313.71 L122.93,314.00 L127.08,314.00 L131.23,314.00 L135.37,313.71 L139.52,313.71 L143.67,314.00 L147.82,313.71 L151.96,313.42 L156.11,313.71 L160.26,312.84 L164.41,313.42 L168.55,312.55 L172.70,312.26 L176.85,312.55 L181.00,313.13 L185.14,313.42 L189.29,312.26 L193.44,312.26 L197.58,312.26 L201.73,311.97 L205.88,312.84 L210.03,313.13 L214.17,311.97 L218.32,312.26 L222.47,313.13 L226.62,313.13 L230.76,313.13 L234.91,313.42 L239.06,313.71 L243.20,313.42 L247.35,313.13 L251.50,312.26 L255.65,312.84 L259.79,313.42 L263.94,313.42 L268.09,312.84 L272.24,312.84 L276.38,307.34 L280.53,311.97 L284.68,312.84 L288.82,314.00 L292.97,313.71 L297.12,313.13 L301.27,311.40 L305.41,313.71 L309.56,307.92 L313.71,314.00 L317.86,314.00 L322.00,313.13 L326.15,313.13 L330.30,313.42 L334.45,313.71 L338.59,314.00 L342.74,313.42 L346.89,314.00 L351.03,307.63 L355.18,314.00 L359.33,312.26 L363.48,313.13 L367.62,314.00 L371.77,314.00 L375.92,314.00 L380.07,313.42 L384.21,313.71 L388.36,314.00 L392.51,313.42 L396.65,314.00 L400.80,305.03 L404.95,313.71 L409.10,308.50 L413.24,313.42 L417.39,313.71 L421.54,307.92 L425.69,311.68 L429.83,314.00 L433.98,311.11 L438.13,313.13 L442.27,312.55 L446.42,312.55 L450.57,298.66 L454.72,313.13 L458.86,310.82 L463.01,313.42 L467.16,310.53 L471.31,310.24 L475.45,312.55 L479.60,313.42 L483.75,309.37 L487.90,312.55 L492.04,237.60 L496.19,313.71 L500.34,311.97 L504.48,313.13 L508.63,306.77 L512.78,312.26 L514.85,314.00 L516.93,312.84 L519.00,311.97 L521.07,310.24 L523.15,314.00 L525.22,308.79 L527.29,314.00 L529.37,311.68 L531.44,313.42 L533.52,304.74 L535.59,314.00 L537.66,303.58 L541.81,298.08 L545.96,304.45 L550.10,311.11 L554.25,306.77 L558.40,284.48 L562.55,304.16 L566.69,306.77 L570.84,307.92 L574.99,294.90 L579.14,311.40 L583.28,238.47 L587.43,308.79 L591.58,305.90 L595.73,310.53 L597.80,309.37 L599.87,300.40 L601.95,312.84 L604.02,309.66 L606.09,310.24 L608.17,280.72 L610.24,308.50 L612.31,277.25 L614.39,306.19 L616.46,225.16 L618.54,311.11 L620.61,303.87 L624.76,260.75 L628.90,305.32 L633.05,300.40 L637.20,308.50 L641.35,266.54 L645.49,305.61 L649.64,309.08 L653.79,309.37 L657.93,173.06 L662.08,305.90 L666.23,301.85 L670.38,305.90 L674.52,295.19 L678.67,304.74 L682.82,301.56 L686.97,308.79 L691.11,309.95 L695.26,291.72 L699.41,217.34 L703.55,310.53 L707.70,304.74 L711.85,301.85 L716.00,300.98 L720.14,303.29 L724.29,292.01 L728.44,310.53 L732.59,299.82 L740.88,119.82 L749.18,292.87 L757.47,302.13 L765.76,304.74 L774.06,300.69 L782.35,220.24 L790.65,276.09 L798.94,291.14 L807.24,279.27 L815.53,294.90 L823.83,22.00 L832.12,303.87 L840.42,296.64 L848.71,312.55 L857.00,303.87 L865.30,274.35 L873.59,308.50 L881.89,309.95 L890.18,294.32 L898.48,312.26 L906.77,257.57 L915.07,308.79 L923.36,307.34 L931.66,304.74 L939.95,311.40 L948.25,306.48" class="series calls"></path>
      <path d="M89.75,310.24 L93.90,261.33 L98.05,308.21 L102.20,312.26 L106.34,312.55 L110.49,309.37 L114.64,290.56 L118.79,313.42 L122.93,313.13 L127.08,296.93 L131.23,298.66 L135.37,308.50 L139.52,313.42 L143.67,303.58 L147.82,295.19 L151.96,284.19 L156.11,272.04 L160.26,305.03 L164.41,312.26 L168.55,304.45 L172.70,309.08 L176.85,302.42 L181.00,310.53 L185.14,293.74 L189.29,311.40 L193.44,309.37 L197.58,310.53 L201.73,302.42 L205.88,311.40 L210.03,306.77 L214.17,311.11 L218.32,310.82 L222.47,311.40 L226.62,306.19 L230.76,310.24 L234.91,309.66 L239.06,312.55 L243.20,257.86 L247.35,311.11 L251.50,309.95 L255.65,309.95 L259.79,311.40 L263.94,312.84 L268.09,307.92 L272.24,306.19 L276.38,306.48 L280.53,309.66 L284.68,294.03 L288.82,310.53 L292.97,304.16 L297.12,312.26 L301.27,308.79 L305.41,309.08 L309.56,304.74 L313.71,309.95 L317.86,293.45 L322.00,302.42 L326.15,271.46 L330.30,309.66 L334.45,311.97 L338.59,309.95 L342.74,298.37 L346.89,306.48 L351.03,310.24 L355.18,307.05 L359.33,303.87 L363.48,301.85 L367.62,292.01 L371.77,300.11 L375.92,296.64 L380.07,310.53 L384.21,303.87 L388.36,310.24 L392.51,303.58 L396.65,292.87 L400.80,300.69 L404.95,303.29 L409.10,265.09 L413.24,305.03 L417.39,303.87 L421.54,296.64 L425.69,270.88 L429.83,299.24 L433.98,300.98 L438.13,304.16 L442.27,283.90 L446.42,307.92 L450.57,223.71 L454.72,296.06 L458.86,295.19 L463.01,257.28 L467.16,300.11 L471.31,300.11 L475.45,295.19 L479.60,295.48 L483.75,289.98 L487.90,273.77 L492.04,239.91 L496.19,307.34 L500.34,303.87 L504.48,305.61 L508.63,298.08 L512.78,271.17 L514.85,313.13 L516.93,289.40 L519.00,311.68 L521.07,301.27 L523.15,311.11 L525.22,290.85 L527.29,313.42 L529.37,303.87 L531.44,307.34 L533.52,270.30 L535.59,310.82 L537.66,293.45 L541.81,294.03 L545.96,305.03 L550.10,291.72 L554.25,304.45 L558.40,301.56 L562.55,303.87 L566.69,300.69 L570.84,298.95 L574.99,271.46 L579.14,300.40 L583.28,292.58 L587.43,302.71 L591.58,256.70 L595.73,301.27 L597.80,311.68 L599.87,301.85 L601.95,310.53 L604.02,310.53 L606.09,312.26 L608.17,287.09 L610.24,313.13 L612.31,293.74 L614.39,313.42 L616.46,300.98 L618.54,313.13 L620.61,303.58 L624.76,303.87 L628.90,307.63 L633.05,309.66 L637.20,311.11 L641.35,303.58 L645.49,303.29 L649.64,305.32 L653.79,311.40 L657.93,302.13 L662.08,309.08 L666.23,310.24 L670.38,312.26 L674.52,307.92 L678.67,313.13 L682.82,313.42 L686.97,311.11 L691.11,308.21 L695.26,311.11 L699.41,309.66 L703.55,312.26 L707.70,308.79 L711.85,311.97 L716.00,309.66 L720.14,308.79 L724.29,305.90 L728.44,313.71 L732.59,313.13 L740.88,309.37 L749.18,314.00 L757.47,312.55 L765.76,313.71 L774.06,311.40 L782.35,311.68 L790.65,313.71 L798.94,314.00 L807.24,313.71 L815.53,314.00 L823.83,314.00 L832.12,314.00 L840.42,314.00 L848.71,314.00 L857.00,313.71 L865.30,314.00 L873.59,314.00 L881.89,314.00 L890.18,314.00 L898.48,314.00 L906.77,313.71 L915.07,314.00 L923.36,313.71 L931.66,314.00 L939.95,313.71 L948.25,314.00" class="series puts"></path>
      <circle cx="89.75" cy="314.00" r="2.2" class="dot call-dot"></circle><circle cx="93.90" cy="313.71" r="2.2" class="dot call-dot"></circle><circle cx="98.05" cy="313.71" r="2.2" class="dot call-dot"></circle><circle cx="102.20" cy="314.00" r="2.2" class="dot call-dot"></circle><circle cx="106.34" cy="314.00" r="2.2" class="dot call-dot"></circle><circle cx="110.49" cy="313.71" r="2.2" class="dot call-dot"></circle><circle cx="114.64" cy="314.00" r="2.2" class="dot call-dot"></circle><circle cx="118.79" cy="313.71" r="2.2" class="dot call-dot"></circle><circle cx="122.93" cy="314.00" r="2.2" class="dot call-dot"></circle><circle cx="127.08" cy="314.00" r="2.2" class="dot call-dot"></circle><circle cx="131.23" cy="314.00" r="2.2" class="dot call-dot"></circle><circle cx="135.37" cy="313.71" r="2.2" class="dot call-dot"></circle><circle cx="139.52" cy="313.71" r="2.2" class="dot call-dot"></circle><circle cx="143.67" cy="314.00" r="2.2" class="dot call-dot"></circle><circle cx="147.82" cy="313.71" r="2.2" class="dot call-dot"></circle><circle cx="151.96" cy="313.42" r="2.2" class="dot call-dot"></circle><circle cx="156.11" cy="313.71" r="2.2" class="dot call-dot"></circle><circle cx="160.26" cy="312.84" r="2.2" class="dot call-dot"></circle><circle cx="164.41" cy="313.42" r="2.2" class="dot call-dot"></circle><circle cx="168.55" cy="312.55" r="2.2" class="dot call-dot"></circle><circle cx="172.70" cy="312.26" r="2.2" class="dot call-dot"></circle><circle cx="176.85" cy="312.55" r="2.2" class="dot call-dot"></circle><circle cx="181.00" cy="313.13" r="2.2" class="dot call-dot"></circle><circle cx="185.14" cy="313.42" r="2.2" class="dot call-dot"></circle><circle cx="189.29" cy="312.26" r="2.2" class="dot call-dot"></circle><circle cx="193.44" cy="312.26" r="2.2" class="dot call-dot"></circle><circle cx="197.58" cy="312.26" r="2.2" class="dot call-dot"></circle><circle cx="201.73" cy="311.97" r="2.2" class="dot call-dot"></circle><circle cx="205.88" cy="312.84" r="2.2" class="dot call-dot"></circle><circle cx="210.03" cy="313.13" r="2.2" class="dot call-dot"></circle><circle cx="214.17" cy="311.97" r="2.2" class="dot call-dot"></circle><circle cx="218.32" cy="312.26" r="2.2" class="dot call-dot"></circle><circle cx="222.47" cy="313.13" r="2.2" class="dot call-dot"></circle><circle cx="226.62" cy="313.13" r="2.2" class="dot call-dot"></circle><circle cx="230.76" cy="313.13" r="2.2" class="dot call-dot"></circle><circle cx="234.91" cy="313.42" r="2.2" class="dot call-dot"></circle><circle cx="239.06" cy="313.71" r="2.2" class="dot call-dot"></circle><circle cx="243.20" cy="313.42" r="2.2" class="dot call-dot"></circle><circle cx="247.35" cy="313.13" r="2.2" class="dot call-dot"></circle><circle cx="251.50" cy="312.26" r="2.2" class="dot call-dot"></circle><circle cx="255.65" cy="312.84" r="2.2" class="dot call-dot"></circle><circle cx="259.79" cy="313.42" r="2.2" class="dot call-dot"></circle><circle cx="263.94" cy="313.42" r="2.2" class="dot call-dot"></circle><circle cx="268.09" cy="312.84" r="2.2" class="dot call-dot"></circle><circle cx="272.24" cy="312.84" r="2.2" class="dot call-dot"></circle><circle cx="276.38" cy="307.34" r="2.2" class="dot call-dot"></circle><circle cx="280.53" cy="311.97" r="2.2" class="dot call-dot"></circle><circle cx="284.68" cy="312.84" r="2.2" class="dot call-dot"></circle><circle cx="288.82" cy="314.00" r="2.2" class="dot call-dot"></circle><circle cx="292.97" cy="313.71" r="2.2" class="dot call-dot"></circle><circle cx="297.12" cy="313.13" r="2.2" class="dot call-dot"></circle><circle cx="301.27" cy="311.40" r="2.2" class="dot call-dot"></circle><circle cx="305.41" cy="313.71" r="2.2" class="dot call-dot"></circle><circle cx="309.56" cy="307.92" r="2.2" class="dot call-dot"></circle><circle cx="313.71" cy="314.00" r="2.2" class="dot call-dot"></circle><circle cx="317.86" cy="314.00" r="2.2" class="dot call-dot"></circle><circle cx="322.00" cy="313.13" r="2.2" class="dot call-dot"></circle><circle cx="326.15" cy="313.13" r="2.2" class="dot call-dot"></circle><circle cx="330.30" cy="313.42" r="2.2" class="dot call-dot"></circle><circle cx="334.45" cy="313.71" r="2.2" class="dot call-dot"></circle><circle cx="338.59" cy="314.00" r="2.2" class="dot call-dot"></circle><circle cx="342.74" cy="313.42" r="2.2" class="dot call-dot"></circle><circle cx="346.89" cy="314.00" r="2.2" class="dot call-dot"></circle><circle cx="351.03" cy="307.63" r="2.2" class="dot call-dot"></circle><circle cx="355.18" cy="314.00" r="2.2" class="dot call-dot"></circle><circle cx="359.33" cy="312.26" r="2.2" class="dot call-dot"></circle><circle cx="363.48" cy="313.13" r="2.2" class="dot call-dot"></circle><circle cx="367.62" cy="314.00" r="2.2" class="dot call-dot"></circle><circle cx="371.77" cy="314.00" r="2.2" class="dot call-dot"></circle><circle cx="375.92" cy="314.00" r="2.2" class="dot call-dot"></circle><circle cx="380.07" cy="313.42" r="2.2" class="dot call-dot"></circle><circle cx="384.21" cy="313.71" r="2.2" class="dot call-dot"></circle><circle cx="388.36" cy="314.00" r="2.2" class="dot call-dot"></circle><circle cx="392.51" cy="313.42" r="2.2" class="dot call-dot"></circle><circle cx="396.65" cy="314.00" r="2.2" class="dot call-dot"></circle><circle cx="400.80" cy="305.03" r="2.2" class="dot call-dot"></circle><circle cx="404.95" cy="313.71" r="2.2" class="dot call-dot"></circle><circle cx="409.10" cy="308.50" r="2.2" class="dot call-dot"></circle><circle cx="413.24" cy="313.42" r="2.2" class="dot call-dot"></circle><circle cx="417.39" cy="313.71" r="2.2" class="dot call-dot"></circle><circle cx="421.54" cy="307.92" r="2.2" class="dot call-dot"></circle><circle cx="425.69" cy="311.68" r="2.2" class="dot call-dot"></circle><circle cx="429.83" cy="314.00" r="2.2" class="dot call-dot"></circle><circle cx="433.98" cy="311.11" r="2.2" class="dot call-dot"></circle><circle cx="438.13" cy="313.13" r="2.2" class="dot call-dot"></circle><circle cx="442.27" cy="312.55" r="2.2" class="dot call-dot"></circle><circle cx="446.42" cy="312.55" r="2.2" class="dot call-dot"></circle><circle cx="450.57" cy="298.66" r="2.2" class="dot call-dot"></circle><circle cx="454.72" cy="313.13" r="2.2" class="dot call-dot"></circle><circle cx="458.86" cy="310.82" r="2.2" class="dot call-dot"></circle><circle cx="463.01" cy="313.42" r="2.2" class="dot call-dot"></circle><circle cx="467.16" cy="310.53" r="2.2" class="dot call-dot"></circle><circle cx="471.31" cy="310.24" r="2.2" class="dot call-dot"></circle><circle cx="475.45" cy="312.55" r="2.2" class="dot call-dot"></circle><circle cx="479.60" cy="313.42" r="2.2" class="dot call-dot"></circle><circle cx="483.75" cy="309.37" r="2.2" class="dot call-dot"></circle><circle cx="487.90" cy="312.55" r="2.2" class="dot call-dot"></circle><circle cx="492.04" cy="237.60" r="2.2" class="dot call-dot"></circle><circle cx="496.19" cy="313.71" r="2.2" class="dot call-dot"></circle><circle cx="500.34" cy="311.97" r="2.2" class="dot call-dot"></circle><circle cx="504.48" cy="313.13" r="2.2" class="dot call-dot"></circle><circle cx="508.63" cy="306.77" r="2.2" class="dot call-dot"></circle><circle cx="512.78" cy="312.26" r="2.2" class="dot call-dot"></circle><circle cx="514.85" cy="314.00" r="2.2" class="dot call-dot"></circle><circle cx="516.93" cy="312.84" r="2.2" class="dot call-dot"></circle><circle cx="519.00" cy="311.97" r="2.2" class="dot call-dot"></circle><circle cx="521.07" cy="310.24" r="2.2" class="dot call-dot"></circle><circle cx="523.15" cy="314.00" r="2.2" class="dot call-dot"></circle><circle cx="525.22" cy="308.79" r="2.2" class="dot call-dot"></circle><circle cx="527.29" cy="314.00" r="2.2" class="dot call-dot"></circle><circle cx="529.37" cy="311.68" r="2.2" class="dot call-dot"></circle><circle cx="531.44" cy="313.42" r="2.2" class="dot call-dot"></circle><circle cx="533.52" cy="304.74" r="2.2" class="dot call-dot"></circle><circle cx="535.59" cy="314.00" r="2.2" class="dot call-dot"></circle><circle cx="537.66" cy="303.58" r="2.2" class="dot call-dot"></circle><circle cx="541.81" cy="298.08" r="2.2" class="dot call-dot"></circle><circle cx="545.96" cy="304.45" r="2.2" class="dot call-dot"></circle><circle cx="550.10" cy="311.11" r="2.2" class="dot call-dot"></circle><circle cx="554.25" cy="306.77" r="2.2" class="dot call-dot"></circle><circle cx="558.40" cy="284.48" r="2.2" class="dot call-dot"></circle><circle cx="562.55" cy="304.16" r="2.2" class="dot call-dot"></circle><circle cx="566.69" cy="306.77" r="2.2" class="dot call-dot"></circle><circle cx="570.84" cy="307.92" r="2.2" class="dot call-dot"></circle><circle cx="574.99" cy="294.90" r="2.2" class="dot call-dot"></circle><circle cx="579.14" cy="311.40" r="2.2" class="dot call-dot"></circle><circle cx="583.28" cy="238.47" r="2.2" class="dot call-dot"></circle><circle cx="587.43" cy="308.79" r="2.2" class="dot call-dot"></circle><circle cx="591.58" cy="305.90" r="2.2" class="dot call-dot"></circle><circle cx="595.73" cy="310.53" r="2.2" class="dot call-dot"></circle><circle cx="597.80" cy="309.37" r="2.2" class="dot call-dot"></circle><circle cx="599.87" cy="300.40" r="2.2" class="dot call-dot"></circle><circle cx="601.95" cy="312.84" r="2.2" class="dot call-dot"></circle><circle cx="604.02" cy="309.66" r="2.2" class="dot call-dot"></circle><circle cx="606.09" cy="310.24" r="2.2" class="dot call-dot"></circle><circle cx="608.17" cy="280.72" r="2.2" class="dot call-dot"></circle><circle cx="610.24" cy="308.50" r="2.2" class="dot call-dot"></circle><circle cx="612.31" cy="277.25" r="2.2" class="dot call-dot"></circle><circle cx="614.39" cy="306.19" r="2.2" class="dot call-dot"></circle><circle cx="616.46" cy="225.16" r="2.2" class="dot call-dot"></circle><circle cx="618.54" cy="311.11" r="2.2" class="dot call-dot"></circle><circle cx="620.61" cy="303.87" r="2.2" class="dot call-dot"></circle><circle cx="624.76" cy="260.75" r="2.2" class="dot call-dot"></circle><circle cx="628.90" cy="305.32" r="2.2" class="dot call-dot"></circle><circle cx="633.05" cy="300.40" r="2.2" class="dot call-dot"></circle><circle cx="637.20" cy="308.50" r="2.2" class="dot call-dot"></circle><circle cx="641.35" cy="266.54" r="2.2" class="dot call-dot"></circle><circle cx="645.49" cy="305.61" r="2.2" class="dot call-dot"></circle><circle cx="649.64" cy="309.08" r="2.2" class="dot call-dot"></circle><circle cx="653.79" cy="309.37" r="2.2" class="dot call-dot"></circle><circle cx="657.93" cy="173.06" r="2.2" class="dot call-dot"></circle><circle cx="662.08" cy="305.90" r="2.2" class="dot call-dot"></circle><circle cx="666.23" cy="301.85" r="2.2" class="dot call-dot"></circle><circle cx="670.38" cy="305.90" r="2.2" class="dot call-dot"></circle><circle cx="674.52" cy="295.19" r="2.2" class="dot call-dot"></circle><circle cx="678.67" cy="304.74" r="2.2" class="dot call-dot"></circle><circle cx="682.82" cy="301.56" r="2.2" class="dot call-dot"></circle><circle cx="686.97" cy="308.79" r="2.2" class="dot call-dot"></circle><circle cx="691.11" cy="309.95" r="2.2" class="dot call-dot"></circle><circle cx="695.26" cy="291.72" r="2.2" class="dot call-dot"></circle><circle cx="699.41" cy="217.34" r="2.2" class="dot call-dot"></circle><circle cx="703.55" cy="310.53" r="2.2" class="dot call-dot"></circle><circle cx="707.70" cy="304.74" r="2.2" class="dot call-dot"></circle><circle cx="711.85" cy="301.85" r="2.2" class="dot call-dot"></circle><circle cx="716.00" cy="300.98" r="2.2" class="dot call-dot"></circle><circle cx="720.14" cy="303.29" r="2.2" class="dot call-dot"></circle><circle cx="724.29" cy="292.01" r="2.2" class="dot call-dot"></circle><circle cx="728.44" cy="310.53" r="2.2" class="dot call-dot"></circle><circle cx="732.59" cy="299.82" r="2.2" class="dot call-dot"></circle><circle cx="740.88" cy="119.82" r="2.2" class="dot call-dot"></circle><circle cx="749.18" cy="292.87" r="2.2" class="dot call-dot"></circle><circle cx="757.47" cy="302.13" r="2.2" class="dot call-dot"></circle><circle cx="765.76" cy="304.74" r="2.2" class="dot call-dot"></circle><circle cx="774.06" cy="300.69" r="2.2" class="dot call-dot"></circle><circle cx="782.35" cy="220.24" r="2.2" class="dot call-dot"></circle><circle cx="790.65" cy="276.09" r="2.2" class="dot call-dot"></circle><circle cx="798.94" cy="291.14" r="2.2" class="dot call-dot"></circle><circle cx="807.24" cy="279.27" r="2.2" class="dot call-dot"></circle><circle cx="815.53" cy="294.90" r="2.2" class="dot call-dot"></circle><circle cx="823.83" cy="22.00" r="2.2" class="dot call-dot"></circle><circle cx="832.12" cy="303.87" r="2.2" class="dot call-dot"></circle><circle cx="840.42" cy="296.64" r="2.2" class="dot call-dot"></circle><circle cx="848.71" cy="312.55" r="2.2" class="dot call-dot"></circle><circle cx="857.00" cy="303.87" r="2.2" class="dot call-dot"></circle><circle cx="865.30" cy="274.35" r="2.2" class="dot call-dot"></circle><circle cx="873.59" cy="308.50" r="2.2" class="dot call-dot"></circle><circle cx="881.89" cy="309.95" r="2.2" class="dot call-dot"></circle><circle cx="890.18" cy="294.32" r="2.2" class="dot call-dot"></circle><circle cx="898.48" cy="312.26" r="2.2" class="dot call-dot"></circle><circle cx="906.77" cy="257.57" r="2.2" class="dot call-dot"></circle><circle cx="915.07" cy="308.79" r="2.2" class="dot call-dot"></circle><circle cx="923.36" cy="307.34" r="2.2" class="dot call-dot"></circle><circle cx="931.66" cy="304.74" r="2.2" class="dot call-dot"></circle><circle cx="939.95" cy="311.40" r="2.2" class="dot call-dot"></circle><circle cx="948.25" cy="306.48" r="2.2" class="dot call-dot"></circle>
      <circle cx="89.75" cy="310.24" r="2.2" class="dot put-dot"></circle><circle cx="93.90" cy="261.33" r="2.2" class="dot put-dot"></circle><circle cx="98.05" cy="308.21" r="2.2" class="dot put-dot"></circle><circle cx="102.20" cy="312.26" r="2.2" class="dot put-dot"></circle><circle cx="106.34" cy="312.55" r="2.2" class="dot put-dot"></circle><circle cx="110.49" cy="309.37" r="2.2" class="dot put-dot"></circle><circle cx="114.64" cy="290.56" r="2.2" class="dot put-dot"></circle><circle cx="118.79" cy="313.42" r="2.2" class="dot put-dot"></circle><circle cx="122.93" cy="313.13" r="2.2" class="dot put-dot"></circle><circle cx="127.08" cy="296.93" r="2.2" class="dot put-dot"></circle><circle cx="131.23" cy="298.66" r="2.2" class="dot put-dot"></circle><circle cx="135.37" cy="308.50" r="2.2" class="dot put-dot"></circle><circle cx="139.52" cy="313.42" r="2.2" class="dot put-dot"></circle><circle cx="143.67" cy="303.58" r="2.2" class="dot put-dot"></circle><circle cx="147.82" cy="295.19" r="2.2" class="dot put-dot"></circle><circle cx="151.96" cy="284.19" r="2.2" class="dot put-dot"></circle><circle cx="156.11" cy="272.04" r="2.2" class="dot put-dot"></circle><circle cx="160.26" cy="305.03" r="2.2" class="dot put-dot"></circle><circle cx="164.41" cy="312.26" r="2.2" class="dot put-dot"></circle><circle cx="168.55" cy="304.45" r="2.2" class="dot put-dot"></circle><circle cx="172.70" cy="309.08" r="2.2" class="dot put-dot"></circle><circle cx="176.85" cy="302.42" r="2.2" class="dot put-dot"></circle><circle cx="181.00" cy="310.53" r="2.2" class="dot put-dot"></circle><circle cx="185.14" cy="293.74" r="2.2" class="dot put-dot"></circle><circle cx="189.29" cy="311.40" r="2.2" class="dot put-dot"></circle><circle cx="193.44" cy="309.37" r="2.2" class="dot put-dot"></circle><circle cx="197.58" cy="310.53" r="2.2" class="dot put-dot"></circle><circle cx="201.73" cy="302.42" r="2.2" class="dot put-dot"></circle><circle cx="205.88" cy="311.40" r="2.2" class="dot put-dot"></circle><circle cx="210.03" cy="306.77" r="2.2" class="dot put-dot"></circle><circle cx="214.17" cy="311.11" r="2.2" class="dot put-dot"></circle><circle cx="218.32" cy="310.82" r="2.2" class="dot put-dot"></circle><circle cx="222.47" cy="311.40" r="2.2" class="dot put-dot"></circle><circle cx="226.62" cy="306.19" r="2.2" class="dot put-dot"></circle><circle cx="230.76" cy="310.24" r="2.2" class="dot put-dot"></circle><circle cx="234.91" cy="309.66" r="2.2" class="dot put-dot"></circle><circle cx="239.06" cy="312.55" r="2.2" class="dot put-dot"></circle><circle cx="243.20" cy="257.86" r="2.2" class="dot put-dot"></circle><circle cx="247.35" cy="311.11" r="2.2" class="dot put-dot"></circle><circle cx="251.50" cy="309.95" r="2.2" class="dot put-dot"></circle><circle cx="255.65" cy="309.95" r="2.2" class="dot put-dot"></circle><circle cx="259.79" cy="311.40" r="2.2" class="dot put-dot"></circle><circle cx="263.94" cy="312.84" r="2.2" class="dot put-dot"></circle><circle cx="268.09" cy="307.92" r="2.2" class="dot put-dot"></circle><circle cx="272.24" cy="306.19" r="2.2" class="dot put-dot"></circle><circle cx="276.38" cy="306.48" r="2.2" class="dot put-dot"></circle><circle cx="280.53" cy="309.66" r="2.2" class="dot put-dot"></circle><circle cx="284.68" cy="294.03" r="2.2" class="dot put-dot"></circle><circle cx="288.82" cy="310.53" r="2.2" class="dot put-dot"></circle><circle cx="292.97" cy="304.16" r="2.2" class="dot put-dot"></circle><circle cx="297.12" cy="312.26" r="2.2" class="dot put-dot"></circle><circle cx="301.27" cy="308.79" r="2.2" class="dot put-dot"></circle><circle cx="305.41" cy="309.08" r="2.2" class="dot put-dot"></circle><circle cx="309.56" cy="304.74" r="2.2" class="dot put-dot"></circle><circle cx="313.71" cy="309.95" r="2.2" class="dot put-dot"></circle><circle cx="317.86" cy="293.45" r="2.2" class="dot put-dot"></circle><circle cx="322.00" cy="302.42" r="2.2" class="dot put-dot"></circle><circle cx="326.15" cy="271.46" r="2.2" class="dot put-dot"></circle><circle cx="330.30" cy="309.66" r="2.2" class="dot put-dot"></circle><circle cx="334.45" cy="311.97" r="2.2" class="dot put-dot"></circle><circle cx="338.59" cy="309.95" r="2.2" class="dot put-dot"></circle><circle cx="342.74" cy="298.37" r="2.2" class="dot put-dot"></circle><circle cx="346.89" cy="306.48" r="2.2" class="dot put-dot"></circle><circle cx="351.03" cy="310.24" r="2.2" class="dot put-dot"></circle><circle cx="355.18" cy="307.05" r="2.2" class="dot put-dot"></circle><circle cx="359.33" cy="303.87" r="2.2" class="dot put-dot"></circle><circle cx="363.48" cy="301.85" r="2.2" class="dot put-dot"></circle><circle cx="367.62" cy="292.01" r="2.2" class="dot put-dot"></circle><circle cx="371.77" cy="300.11" r="2.2" class="dot put-dot"></circle><circle cx="375.92" cy="296.64" r="2.2" class="dot put-dot"></circle><circle cx="380.07" cy="310.53" r="2.2" class="dot put-dot"></circle><circle cx="384.21" cy="303.87" r="2.2" class="dot put-dot"></circle><circle cx="388.36" cy="310.24" r="2.2" class="dot put-dot"></circle><circle cx="392.51" cy="303.58" r="2.2" class="dot put-dot"></circle><circle cx="396.65" cy="292.87" r="2.2" class="dot put-dot"></circle><circle cx="400.80" cy="300.69" r="2.2" class="dot put-dot"></circle><circle cx="404.95" cy="303.29" r="2.2" class="dot put-dot"></circle><circle cx="409.10" cy="265.09" r="2.2" class="dot put-dot"></circle><circle cx="413.24" cy="305.03" r="2.2" class="dot put-dot"></circle><circle cx="417.39" cy="303.87" r="2.2" class="dot put-dot"></circle><circle cx="421.54" cy="296.64" r="2.2" class="dot put-dot"></circle><circle cx="425.69" cy="270.88" r="2.2" class="dot put-dot"></circle><circle cx="429.83" cy="299.24" r="2.2" class="dot put-dot"></circle><circle cx="433.98" cy="300.98" r="2.2" class="dot put-dot"></circle><circle cx="438.13" cy="304.16" r="2.2" class="dot put-dot"></circle><circle cx="442.27" cy="283.90" r="2.2" class="dot put-dot"></circle><circle cx="446.42" cy="307.92" r="2.2" class="dot put-dot"></circle><circle cx="450.57" cy="223.71" r="2.2" class="dot put-dot"></circle><circle cx="454.72" cy="296.06" r="2.2" class="dot put-dot"></circle><circle cx="458.86" cy="295.19" r="2.2" class="dot put-dot"></circle><circle cx="463.01" cy="257.28" r="2.2" class="dot put-dot"></circle><circle cx="467.16" cy="300.11" r="2.2" class="dot put-dot"></circle><circle cx="471.31" cy="300.11" r="2.2" class="dot put-dot"></circle><circle cx="475.45" cy="295.19" r="2.2" class="dot put-dot"></circle><circle cx="479.60" cy="295.48" r="2.2" class="dot put-dot"></circle><circle cx="483.75" cy="289.98" r="2.2" class="dot put-dot"></circle><circle cx="487.90" cy="273.77" r="2.2" class="dot put-dot"></circle><circle cx="492.04" cy="239.91" r="2.2" class="dot put-dot"></circle><circle cx="496.19" cy="307.34" r="2.2" class="dot put-dot"></circle><circle cx="500.34" cy="303.87" r="2.2" class="dot put-dot"></circle><circle cx="504.48" cy="305.61" r="2.2" class="dot put-dot"></circle><circle cx="508.63" cy="298.08" r="2.2" class="dot put-dot"></circle><circle cx="512.78" cy="271.17" r="2.2" class="dot put-dot"></circle><circle cx="514.85" cy="313.13" r="2.2" class="dot put-dot"></circle><circle cx="516.93" cy="289.40" r="2.2" class="dot put-dot"></circle><circle cx="519.00" cy="311.68" r="2.2" class="dot put-dot"></circle><circle cx="521.07" cy="301.27" r="2.2" class="dot put-dot"></circle><circle cx="523.15" cy="311.11" r="2.2" class="dot put-dot"></circle><circle cx="525.22" cy="290.85" r="2.2" class="dot put-dot"></circle><circle cx="527.29" cy="313.42" r="2.2" class="dot put-dot"></circle><circle cx="529.37" cy="303.87" r="2.2" class="dot put-dot"></circle><circle cx="531.44" cy="307.34" r="2.2" class="dot put-dot"></circle><circle cx="533.52" cy="270.30" r="2.2" class="dot put-dot"></circle><circle cx="535.59" cy="310.82" r="2.2" class="dot put-dot"></circle><circle cx="537.66" cy="293.45" r="2.2" class="dot put-dot"></circle><circle cx="541.81" cy="294.03" r="2.2" class="dot put-dot"></circle><circle cx="545.96" cy="305.03" r="2.2" class="dot put-dot"></circle><circle cx="550.10" cy="291.72" r="2.2" class="dot put-dot"></circle><circle cx="554.25" cy="304.45" r="2.2" class="dot put-dot"></circle><circle cx="558.40" cy="301.56" r="2.2" class="dot put-dot"></circle><circle cx="562.55" cy="303.87" r="2.2" class="dot put-dot"></circle><circle cx="566.69" cy="300.69" r="2.2" class="dot put-dot"></circle><circle cx="570.84" cy="298.95" r="2.2" class="dot put-dot"></circle><circle cx="574.99" cy="271.46" r="2.2" class="dot put-dot"></circle><circle cx="579.14" cy="300.40" r="2.2" class="dot put-dot"></circle><circle cx="583.28" cy="292.58" r="2.2" class="dot put-dot"></circle><circle cx="587.43" cy="302.71" r="2.2" class="dot put-dot"></circle><circle cx="591.58" cy="256.70" r="2.2" class="dot put-dot"></circle><circle cx="595.73" cy="301.27" r="2.2" class="dot put-dot"></circle><circle cx="597.80" cy="311.68" r="2.2" class="dot put-dot"></circle><circle cx="599.87" cy="301.85" r="2.2" class="dot put-dot"></circle><circle cx="601.95" cy="310.53" r="2.2" class="dot put-dot"></circle><circle cx="604.02" cy="310.53" r="2.2" class="dot put-dot"></circle><circle cx="606.09" cy="312.26" r="2.2" class="dot put-dot"></circle><circle cx="608.17" cy="287.09" r="2.2" class="dot put-dot"></circle><circle cx="610.24" cy="313.13" r="2.2" class="dot put-dot"></circle><circle cx="612.31" cy="293.74" r="2.2" class="dot put-dot"></circle><circle cx="614.39" cy="313.42" r="2.2" class="dot put-dot"></circle><circle cx="616.46" cy="300.98" r="2.2" class="dot put-dot"></circle><circle cx="618.54" cy="313.13" r="2.2" class="dot put-dot"></circle><circle cx="620.61" cy="303.58" r="2.2" class="dot put-dot"></circle><circle cx="624.76" cy="303.87" r="2.2" class="dot put-dot"></circle><circle cx="628.90" cy="307.63" r="2.2" class="dot put-dot"></circle><circle cx="633.05" cy="309.66" r="2.2" class="dot put-dot"></circle><circle cx="637.20" cy="311.11" r="2.2" class="dot put-dot"></circle><circle cx="641.35" cy="303.58" r="2.2" class="dot put-dot"></circle><circle cx="645.49" cy="303.29" r="2.2" class="dot put-dot"></circle><circle cx="649.64" cy="305.32" r="2.2" class="dot put-dot"></circle><circle cx="653.79" cy="311.40" r="2.2" class="dot put-dot"></circle><circle cx="657.93" cy="302.13" r="2.2" class="dot put-dot"></circle><circle cx="662.08" cy="309.08" r="2.2" class="dot put-dot"></circle><circle cx="666.23" cy="310.24" r="2.2" class="dot put-dot"></circle><circle cx="670.38" cy="312.26" r="2.2" class="dot put-dot"></circle><circle cx="674.52" cy="307.92" r="2.2" class="dot put-dot"></circle><circle cx="678.67" cy="313.13" r="2.2" class="dot put-dot"></circle><circle cx="682.82" cy="313.42" r="2.2" class="dot put-dot"></circle><circle cx="686.97" cy="311.11" r="2.2" class="dot put-dot"></circle><circle cx="691.11" cy="308.21" r="2.2" class="dot put-dot"></circle><circle cx="695.26" cy="311.11" r="2.2" class="dot put-dot"></circle><circle cx="699.41" cy="309.66" r="2.2" class="dot put-dot"></circle><circle cx="703.55" cy="312.26" r="2.2" class="dot put-dot"></circle><circle cx="707.70" cy="308.79" r="2.2" class="dot put-dot"></circle><circle cx="711.85" cy="311.97" r="2.2" class="dot put-dot"></circle><circle cx="716.00" cy="309.66" r="2.2" class="dot put-dot"></circle><circle cx="720.14" cy="308.79" r="2.2" class="dot put-dot"></circle><circle cx="724.29" cy="305.90" r="2.2" class="dot put-dot"></circle><circle cx="728.44" cy="313.71" r="2.2" class="dot put-dot"></circle><circle cx="732.59" cy="313.13" r="2.2" class="dot put-dot"></circle><circle cx="740.88" cy="309.37" r="2.2" class="dot put-dot"></circle><circle cx="749.18" cy="314.00" r="2.2" class="dot put-dot"></circle><circle cx="757.47" cy="312.55" r="2.2" class="dot put-dot"></circle><circle cx="765.76" cy="313.71" r="2.2" class="dot put-dot"></circle><circle cx="774.06" cy="311.40" r="2.2" class="dot put-dot"></circle><circle cx="782.35" cy="311.68" r="2.2" class="dot put-dot"></circle><circle cx="790.65" cy="313.71" r="2.2" class="dot put-dot"></circle><circle cx="798.94" cy="314.00" r="2.2" class="dot put-dot"></circle><circle cx="807.24" cy="313.71" r="2.2" class="dot put-dot"></circle><circle cx="815.53" cy="314.00" r="2.2" class="dot put-dot"></circle><circle cx="823.83" cy="314.00" r="2.2" class="dot put-dot"></circle><circle cx="832.12" cy="314.00" r="2.2" class="dot put-dot"></circle><circle cx="840.42" cy="314.00" r="2.2" class="dot put-dot"></circle><circle cx="848.71" cy="314.00" r="2.2" class="dot put-dot"></circle><circle cx="857.00" cy="313.71" r="2.2" class="dot put-dot"></circle><circle cx="865.30" cy="314.00" r="2.2" class="dot put-dot"></circle><circle cx="873.59" cy="314.00" r="2.2" class="dot put-dot"></circle><circle cx="881.89" cy="314.00" r="2.2" class="dot put-dot"></circle><circle cx="890.18" cy="314.00" r="2.2" class="dot put-dot"></circle><circle cx="898.48" cy="314.00" r="2.2" class="dot put-dot"></circle><circle cx="906.77" cy="313.71" r="2.2" class="dot put-dot"></circle><circle cx="915.07" cy="314.00" r="2.2" class="dot put-dot"></circle><circle cx="923.36" cy="313.71" r="2.2" class="dot put-dot"></circle><circle cx="931.66" cy="314.00" r="2.2" class="dot put-dot"></circle><circle cx="939.95" cy="313.71" r="2.2" class="dot put-dot"></circle><circle cx="948.25" cy="314.00" r="2.2" class="dot put-dot"></circle>
    </svg>