<svg xmlns="http://www.w3.org/2000/svg" class="oi-chart" viewBox="0 0 1000 360" role="img" aria-label="TSM open interest by strike">

    <style>
      .grid-line { stroke: #e5e7eb; stroke-width: 1; }
      .grid-line.faint { stroke: #f1f5f9; }
      .axis-line { stroke: #9ca3af; stroke-width: 1; }
      .axis-text { fill: #6b7280; font: 11px system-ui, sans-serif; }
      .series { fill: none; stroke-width: 2.6; stroke-linejoin: round; stroke-linecap: round; }
      .series.calls { stroke: #059669; }
      .series.puts { stroke: #dc2626; }
      .dot { stroke: white; stroke-width: 1; }
      .call-dot { fill: #059669; }
      .put-dot { fill: #dc2626; }
      .price-line { stroke: #111827; stroke-width: 1.4; stroke-dasharray: 5 5; }
    </style>
  
      <rect x="0" y="0" width="1000" height="360" fill="transparent"></rect>
      
          <line x1="64" y1="314.00" x2="974" y2="314.00" class="grid-line"></line>
          <text x="52" y="318.00" text-anchor="end" class="axis-text">0</text>
        
          <line x1="64" y1="241.00" x2="974" y2="241.00" class="grid-line"></line>
          <text x="52" y="245.00" text-anchor="end" class="axis-text">5,572</text>
        
          <line x1="64" y1="168.00" x2="974" y2="168.00" class="grid-line"></line>
          <text x="52" y="172.00" text-anchor="end" class="axis-text">11,144</text>
        
          <line x1="64" y1="95.00" x2="974" y2="95.00" class="grid-line"></line>
          <text x="52" y="99.00" text-anchor="end" class="axis-text">16,715</text>
        
          <line x1="64" y1="22.00" x2="974" y2="22.00" class="grid-line"></line>
          <text x="52" y="26.00" text-anchor="end" class="axis-text">22,287</text>
        
      
          <line x1="64.00" y1="22" x2="64.00" y2="314" class="grid-line faint"></line>
          <text x="64.00" y="344" text-anchor="middle" class="axis-text">$297.35</text>
        
          <line x1="246.00" y1="22" x2="246.00" y2="314" class="grid-line faint"></line>
          <text x="246.00" y="344" text-anchor="middle" class="axis-text">$351.41</text>
        
          <line x1="428.00" y1="22" x2="428.00" y2="314" class="grid-line faint"></line>
          <text x="428.00" y="344" text-anchor="middle" class="axis-text">$405.47</text>
        
          <line x1="610.00" y1="22" x2="610.00" y2="314" class="grid-line faint"></line>
          <text x="610.00" y="344" text-anchor="middle" class="axis-text">$459.53</text>
        
          <line x1="792.00" y1="22" x2="792.00" y2="314" class="grid-line faint"></line>
          <text x="792.00" y="344" text-anchor="middle" class="axis-text">$513.59</text>
        
          <line x1="974.00" y1="22" x2="974.00" y2="314" class="grid-line faint"></line>
          <text x="974.00" y="344" text-anchor="middle" class="axis-text">$567.65</text>
        
      <line x1="64" y1="314" x2="974" y2="314" class="axis-line"></line>
      <line x1="64" y1="22" x2="64" y2="314" class="axis-line"></line>
      
        <line x1="513.95" y1="22" x2="513.95" y2="314" class="price-line"></line>
      
      <path d="M89.75,313.84 L106.59,313.80 L123.42,313.88 L140.25,312.87 L157.09,311.33 L165.50,314.00 L173.92,310.49 L182.34,314.00 L190.75,313.20 L199.17,314.00 L207.59,313.40 L216.00,314.00 L224.42,313.70 L232.84,314.00 L241.25,313.66 L249.67,314.00 L258.09,313.99 L266.50,313.99 L274.92,312.01 L283.34,314.00 L291.75,313.78 L300.17,313.99 L308.59,312.69 L317.00,313.97 L325.42,313.71 L333.84,314.00 L342.25,312.15 L350.67,313.96 L359.09,313.62 L367.50,313.96 L375.92,312.48 L384.33,313.63 L392.75,313.03 L401.17,313.92 L409.58,311.07 L418.00,313.83 L426.42,312.53 L434.83,313.91 L443.25,312.38 L451.67,311.12 L460.08,309.45 L468.50,312.99 L476.92,311.65 L485.33,313.38 L493.75,309.69 L502.17,313.71 L510.58,308.77 L519.00,311.73 L527.42,308.90 L535.83,307.45 L544.25,286.41 L552.67,312.61 L561.08,305.51 L569.50,309.83 L577.92,269.45 L586.33,310.42 L594.75,257.15 L603.17,297.36 L611.58,291.92 L620.00,305.23 L628.42,305.05 L636.83,293.77 L645.25,270.38 L653.67,309.79 L662.08,287.94 L670.50,297.90 L678.91,223.83 L687.33,301.45 L695.75,284.42 L704.16,309.62 L712.58,288.19 L721.00,304.62 L729.41,306.41 L737.83,312.03 L746.25,291.46 L754.66,295.24 L763.08,283.29 L771.50,312.90 L779.91,304.47 L788.33,312.06 L796.75,287.78 L805.16,312.26 L813.58,302.85 L822.00,312.87 L830.41,308.64 L838.83,312.28 L847.25,293.25 L855.66,310.16 L864.08,311.72 L872.50,312.81 L880.91,295.58 L889.33,313.76 L897.75,310.13 L906.16,310.03 L914.58,307.74 L923.00,313.25 L948.25,304.41" class="series calls"></path>
      <path d="M89.75,276.52 L106.59,285.99 L123.42,289.83 L140.25,207.18 L157.09,294.78 L165.50,312.94 L173.92,263.26 L182.34,312.98 L190.75,311.47 L199.17,309.91 L207.59,295.74 L216.00,313.58 L224.42,306.37 L232.84,311.52 L241.25,261.47 L249.67,310.74 L258.09,22.00 L266.50,311.63 L274.92,304.70 L283.34,312.40 L291.75,303.62 L300.17,310.84 L308.59,283.32 L317.00,308.03 L325.42,299.51 L333.84,311.55 L342.25,300.66 L350.67,312.03 L359.09,293.18 L367.50,310.88 L375.92,286.74 L384.33,310.82 L392.75,307.67 L401.17,311.71 L409.58,277.63 L418.00,292.60 L426.42,295.29 L434.83,306.91 L443.25,283.91 L451.67,311.59 L460.08,301.95 L468.50,308.81 L476.92,296.89 L485.33,307.32 L493.75,298.51 L502.17,302.69 L510.58,275.49 L519.00,310.13 L527.42,305.90 L535.83,308.21 L544.25,291.57 L552.67,307.72 L561.08,297.65 L569.50,302.44 L577.92,203.66 L586.33,311.12 L594.75,306.69 L603.17,311.17 L611.58,306.72 L620.00,313.27 L628.42,312.28 L636.83,311.69 L645.25,296.89 L653.67,312.82 L662.08,312.96 L670.50,313.65 L678.91,312.10 L687.33,313.92 L695.75,312.99 L704.16,313.93 L712.58,313.24 L721.00,313.82 L729.41,313.76 L737.83,312.90 L746.25,313.48 L754.66,314.00 L763.08,313.97 L771.50,314.00 L779.91,314.00 L788.33,314.00 L796.75,314.00 L805.16,314.00 L813.58,313.99 L822.00,314.00 L830.41,314.00 L838.83,314.00 L847.25,314.00 L855.66,314.00 L864.08,314.00 L872.50,314.00 L880.91,314.00 L889.33,314.00 L897.75,314.00 L906.16,314.00 L914.58,314.00 L923.00,314.00 L948.25,314.00" class="series puts"></path>
      <circle cx="89.75" cy="313.84" r="2.2" class="dot call-dot"></circle><circle cx="106.59" cy="313.80" r="2.2" class="dot call-dot"></circle><circle cx="123.42" cy="313.88" r="2.2" class="dot call-dot"></circle><circle cx="140.25" cy="312.87" r="2.2" class="dot call-dot"></circle><circle cx="157.09" cy="311.33" r="2.2" class="dot call-dot"></circle><circle cx="165.50" cy="314.00" r="2.2" class="dot call-dot"></circle><circle cx="173.92" cy="310.49" r="2.2" class="dot call-dot"></circle><circle cx="182.34" cy="314.00" r="2.2" class="dot call-dot"></circle><circle cx="190.75" cy="313.20" r="2.2" class="dot call-dot"></circle><circle cx="199.17" cy="314.00" r="2.2" class="dot call-dot"></circle><circle cx="207.59" cy="313.40" r="2.2" class="dot call-dot"></circle><circle cx="216.00" cy="314.00" r="2.2" class="dot call-dot"></circle><circle cx="224.42" cy="313.70" r="2.2" class="dot call-dot"></circle><circle cx="232.84" cy="314.00" r="2.2" class="dot call-dot"></circle><circle cx="241.25" cy="313.66" r="2.2" class="dot call-dot"></circle><circle cx="249.67" cy="314.00" r="2.2" class="dot call-dot"></circle><circle cx="258.09" cy="313.99" r="2.2" class="dot call-dot"></circle><circle cx="266.50" cy="313.99" r="2.2" class="dot call-dot"></circle><circle cx="274.92" cy="312.01" r="2.2" class="dot call-dot"></circle><circle cx="283.34" cy="314.00" r="2.2" class="dot call-dot"></circle><circle cx="291.75" cy="313.78" r="2.2" class="dot call-dot"></circle><circle cx="300.17" cy="313.99" r="2.2" class="dot call-dot"></circle><circle cx="308.59" cy="312.69" r="2.2" class="dot call-dot"></circle><circle cx="317.00" cy="313.97" r="2.2" class="dot call-dot"></circle><circle cx="325.42" cy="313.71" r="2.2" class="dot call-dot"></circle><circle cx="333.84" cy="314.00" r="2.2" class="dot call-dot"></circle><circle cx="342.25" cy="312.15" r="2.2" class="dot call-dot"></circle><circle cx="350.67" cy="313.96" r="2.2" class="dot call-dot"></circle><circle cx="359.09" cy="313.62" r="2.2" class="dot call-dot"></circle><circle cx="367.50" cy="313.96" r="2.2" class="dot call-dot"></circle><circle cx="375.92" cy="312.48" r="2.2" class="dot call-dot"></circle><circle cx="384.33" cy="313.63" r="2.2" class="dot call-dot"></circle><circle cx="392.75" cy="313.03" r="2.2" class="dot call-dot"></circle><circle cx="401.17" cy="313.92" r="2.2" class="dot call-dot"></circle><circle cx="409.58" cy="311.07" r="2.2" class="dot call-dot"></circle><circle cx="418.00" cy="313.83" r="2.2" class="dot call-dot"></circle><circle cx="426.42" cy="312.53" r="2.2" class="dot call-dot"></circle><circle cx="434.83" cy="313.91" r="2.2" class="dot call-dot"></circle><circle cx="443.25" cy="312.38" r="2.2" class="dot call-dot"></circle><circle cx="451.67" cy="311.12" r="2.2" class="dot call-dot"></circle><circle cx="460.08" cy="309.45" r="2.2" class="dot call-dot"></circle><circle cx="468.50" cy="312.99" r="2.2" class="dot call-dot"></circle><circle cx="476.92" cy="311.65" r="2.2" class="dot call-dot"></circle><circle cx="485.33" cy="313.38" r="2.2" class="dot call-dot"></circle><circle cx="493.75" cy="309.69" r="2.2" class="dot call-dot"></circle><circle cx="502.17" cy="313.71" r="2.2" class="dot call-dot"></circle><circle cx="510.58" cy="308.77" r="2.2" class="dot call-dot"></circle><circle cx="519.00" cy="311.73" r="2.2" class="dot call-dot"></circle><circle cx="527.42" cy="308.90" r="2.2" class="dot call-dot"></circle><circle cx="535.83" cy="307.45" r="2.2" class="dot call-dot"></circle><circle cx="544.25" cy="286.41" r="2.2" class="dot call-dot"></circle><circle cx="552.67" cy="312.61" r="2.2" class="dot call-dot"></circle><circle cx="561.08" cy="305.51" r="2.2" class="dot call-dot"></circle><circle cx="569.50" cy="309.83" r="2.2" class="dot call-dot"></circle><circle cx="577.92" cy="269.45" r="2.2" class="dot call-dot"></circle><circle cx="586.33" cy="310.42" r="2.2" class="dot call-dot"></circle><circle cx="594.75" cy="257.15" r="2.2" class="dot call-dot"></circle><circle cx="603.17" cy="297.36" r="2.2" class="dot call-dot"></circle><circle cx="611.58" cy="291.92" r="2.2" class="dot call-dot"></circle><circle cx="620.00" cy="305.23" r="2.2" class="dot call-dot"></circle><circle cx="628.42" cy="305.05" r="2.2" class="dot call-dot"></circle><circle cx="636.83" cy="293.77" r="2.2" class="dot call-dot"></circle><circle cx="645.25" cy="270.38" r="2.2" class="dot call-dot"></circle><circle cx="653.67" cy="309.79" r="2.2" class="dot call-dot"></circle><circle cx="662.08" cy="287.94" r="2.2" class="dot call-dot"></circle><circle cx="670.50" cy="297.90" r="2.2" class="dot call-dot"></circle><circle cx="678.91" cy="223.83" r="2.2" class="dot call-dot"></circle><circle cx="687.33" cy="301.45" r="2.2" class="dot call-dot"></circle><circle cx="695.75" cy="284.42" r="2.2" class="dot call-dot"></circle><circle cx="704.16" cy="309.62" r="2.2" class="dot call-dot"></circle><circle cx="712.58" cy="288.19" r="2.2" class="dot call-dot"></circle><circle cx="721.00" cy="304.62" r="2.2" class="dot call-dot"></circle><circle cx="729.41" cy="306.41" r="2.2" class="dot call-dot"></circle><circle cx="737.83" cy="312.03" r="2.2" class="dot call-dot"></circle><circle cx="746.25" cy="291.46" r="2.2" class="dot call-dot"></circle><circle cx="754.66" cy="295.24" r="2.2" class="dot call-dot"></circle><circle cx="763.08" cy="283.29" r="2.2" class="dot call-dot"></circle><circle cx="771.50" cy="312.90" r="2.2" class="dot call-dot"></circle><circle cx="779.91" cy="304.47" r="2.2" class="dot call-dot"></circle><circle cx="788.33" cy="312.06" r="2.2" class="dot call-dot"></circle><circle cx="796.75" cy="287.78" r="2.2" class="dot call-dot"></circle><circle cx="805.16" cy="312.26" r="2.2" class="dot call-dot"></circle><circle cx="813.58" cy="302.85" r="2.2" class="dot call-dot"></circle><circle cx="822.00" cy="312.87" r="2.2" class="dot call-dot"></circle><circle cx="830.41" cy="308.64" r="2.2" class="dot call-dot"></circle><circle cx="838.83" cy="312.28" r="2.2" class="dot call-dot"></circle><circle cx="847.25" cy="293.25" r="2.2" class="dot call-dot"></circle><circle cx="855.66" cy="310.16" r="2.2" class="dot call-dot"></circle><circle cx="864.08" cy="311.72" r="2.2" class="dot call-dot"></circle><circle cx="872.50" cy="312.81" r="2.2" class="dot call-dot"></circle><circle cx="880.91" cy="295.58" r="2.2" class="dot call-dot"></circle><circle cx="889.33" cy="313.76" r="2.2" class="dot call-dot"></circle><circle cx="897.75" cy="310.13" r="2.2" class="dot call-dot"></circle><circle cx="906.16" cy="310.03" r="2.2" class="dot call-dot"></circle><circle cx="914.58" cy="307.74" r="2.2" class="dot call-dot"></circle><circle cx="923.00" cy="313.25" r="2.2" class="dot call-dot"></circle><circle cx="948.25" cy="304.41" r="2.2" class="dot call-dot"></circle>
      <circle cx="89.75" cy="276.52" r="2.2" class="dot put-dot"></circle><circle cx="106.59" cy="285.99" r="2.2" class="dot put-dot"></circle><circle cx="123.42" cy="289.83" r="2.2" class="dot put-dot"></circle><circle cx="140.25" cy="207.18" r="2.2" class="dot put-dot"></circle><circle cx="157.09" cy="294.78" r="2.2" class="dot put-dot"></circle><circle cx="165.50" cy="312.94" r="2.2" class="dot put-dot"></circle><circle cx="173.92" cy="263.26" r="2.2" class="dot put-dot"></circle><circle cx="182.34" cy="312.98" r="2.2" class="dot put-dot"></circle><circle cx="190.75" cy="311.47" r="2.2" class="dot put-dot"></circle><circle cx="199.17" cy="309.91" r="2.2" class="dot put-dot"></circle><circle cx="207.59" cy="295.74" r="2.2" class="dot put-dot"></circle><circle cx="216.00" cy="313.58" r="2.2" class="dot put-dot"></circle><circle cx="224.42" cy="306.37" r="2.2" class="dot put-dot"></circle><circle cx="232.84" cy="311.52" r="2.2" class="dot put-dot"></circle><circle cx="241.25" cy="261.47" r="2.2" class="dot put-dot"></circle><circle cx="249.67" cy="310.74" r="2.2" class="dot put-dot"></circle><circle cx="258.09" cy="22.00" r="2.2" class="dot put-dot"></circle><circle cx="266.50" cy="311.63" r="2.2" class="dot put-dot"></circle><circle cx="274.92" cy="304.70" r="2.2" class="dot put-dot"></circle><circle cx="283.34" cy="312.40" r="2.2" class="dot put-dot"></circle><circle cx="291.75" cy="303.62" r="2.2" class="dot put-dot"></circle><circle cx="300.17" cy="310.84" r="2.2" class="dot put-dot"></circle><circle cx="308.59" cy="283.32" r="2.2" class="dot put-dot"></circle><circle cx="317.00" cy="308.03" r="2.2" class="dot put-dot"></circle><circle cx="325.42" cy="299.51" r="2.2" class="dot put-dot"></circle><circle cx="333.84" cy="311.55" r="2.2" class="dot put-dot"></circle><circle cx="342.25" cy="300.66" r="2.2" class="dot put-dot"></circle><circle cx="350.67" cy="312.03" r="2.2" class="dot put-dot"></circle><circle cx="359.09" cy="293.18" r="2.2" class="dot put-dot"></circle><circle cx="367.50" cy="310.88" r="2.2" class="dot put-dot"></circle><circle cx="375.92" cy="286.74" r="2.2" class="dot put-dot"></circle><circle cx="384.33" cy="310.82" r="2.2" class="dot put-dot"></circle><circle cx="392.75" cy="307.67" r="2.2" class="dot put-dot"></circle><circle cx="401.17" cy="311.71" r="2.2" class="dot put-dot"></circle><circle cx="409.58" cy="277.63" r="2.2" class="dot put-dot"></circle><circle cx="418.00" cy="292.60" r="2.2" class="dot put-dot"></circle><circle cx="426.42" cy="295.29" r="2.2" class="dot put-dot"></circle><circle cx="434.83" cy="306.91" r="2.2" class="dot put-dot"></circle><circle cx="443.25" cy="283.91" r="2.2" class="dot put-dot"></circle><circle cx="451.67" cy="311.59" r="2.2" class="dot put-dot"></circle><circle cx="460.08" cy="301.95" r="2.2" class="dot put-dot"></circle><circle cx="468.50" cy="308.81" r="2.2" class="dot put-dot"></circle><circle cx="476.92" cy="296.89" r="2.2" class="dot put-dot"></circle><circle cx="485.33" cy="307.32" r="2.2" class="dot put-dot"></circle><circle cx="493.75" cy="298.51" r="2.2" class="dot put-dot"></circle><circle cx="502.17" cy="302.69" r="2.2" class="dot put-dot"></circle><circle cx="510.58" cy="275.49" r="2.2" class="dot put-dot"></circle><circle cx="519.00" cy="310.13" r="2.2" class="dot put-dot"></circle><circle cx="527.42" cy="305.90" r="2.2" class="dot put-dot"></circle><circle cx="535.83" cy="308.21" r="2.2" class="dot put-dot"></circle><circle cx="544.25" cy="291.57" r="2.2" class="dot put-dot"></circle><circle cx="552.67" cy="307.72" r="2.2" class="dot put-dot"></circle><circle cx="561.08" cy="297.65" r="2.2" class="dot put-dot"></circle><circle cx="569.50" cy="302.44" r="2.2" class="dot put-dot"></circle><circle cx="577.92" cy="203.66" r="2.2" class="dot put-dot"></circle><circle cx="586.33" cy="311.12" r="2.2" class="dot put-dot"></circle><circle cx="594.75" cy="306.69" r="2.2" class="dot put-dot"></circle><circle cx="603.17" cy="311.17" r="2.2" class="dot put-dot"></circle><circle cx="611.58" cy="306.72" r="2.2" class="dot put-dot"></circle><circle cx="620.00" cy="313.27" r="2.2" class="dot put-dot"></circle><circle cx="628.42" cy="312.28" r="2.2" class="dot put-dot"></circle><circle cx="636.83" cy="311.69" r="2.2" class="dot put-dot"></circle><circle cx="645.25" cy="296.89" r="2.2" class="dot put-dot"></circle><circle cx="653.67" cy="312.82" r="2.2" class="dot put-dot"></circle><circle cx="662.08" cy="312.96" r="2.2" class="dot put-dot"></circle><circle cx="670.50" cy="313.65" r="2.2" class="dot put-dot"></circle><circle cx="678.91" cy="312.10" r="2.2" class="dot put-dot"></circle><circle cx="687.33" cy="313.92" r="2.2" class="dot put-dot"></circle><circle cx="695.75" cy="312.99" r="2.2" class="dot put-dot"></circle><circle cx="704.16" cy="313.93" r="2.2" class="dot put-dot"></circle><circle cx="712.58" cy="313.24" r="2.2" class="dot put-dot"></circle><circle cx="721.00" cy="313.82" r="2.2" class="dot put-dot"></circle><circle cx="729.41" cy="313.76" r="2.2" class="dot put-dot"></circle><circle cx="737.83" cy="312.90" r="2.2" class="dot put-dot"></circle><circle cx="746.25" cy="313.48" r="2.2" class="dot put-dot"></circle><circle cx="754.66" cy="314.00" r="2.2" class="dot put-dot"></circle><circle cx="763.08" cy="313.97" r="2.2" class="dot put-dot"></circle><circle cx="771.50" cy="314.00" r="2.2" class="dot put-dot"></circle><circle cx="779.91" cy="314.00" r="2.2" class="dot put-dot"></circle><circle cx="788.33" cy="314.00" r="2.2" class="dot put-dot"></circle><circle cx="796.75" cy="314.00" r="2.2" class="dot put-dot"></circle><circle cx="805.16" cy="314.00" r="2.2" class="dot put-dot"></circle><circle cx="813.58" cy="313.99" r="2.2" class="dot put-dot"></circle><circle cx="822.00" cy="314.00" r="2.2" class="dot put-dot"></circle><circle cx="830.41" cy="314.00" r="2.2" class="dot put-dot"></circle><circle cx="838.83" cy="314.00" r="2.2" class="dot put-dot"></circle><circle cx="847.25" cy="314.00" r="2.2" class="dot put-dot"></circle><circle cx="855.66" cy="314.00" r="2.2" class="dot put-dot"></circle><circle cx="864.08" cy="314.00" r="2.2" class="dot put-dot"></circle><circle cx="872.50" cy="314.00" r="2.2" class="dot put-dot"></circle><circle cx="880.91" cy="314.00" r="2.2" class="dot put-dot"></circle><circle cx="889.33" cy="314.00" r="2.2" class="dot put-dot"></circle><circle cx="897.75" cy="314.00" r="2.2" class="dot put-dot"></circle><circle cx="906.16" cy="314.00" r="2.2" class="dot put-dot"></circle><circle cx="914.58" cy="314.00" r="2.2" class="dot put-dot"></circle><circle cx="923.00" cy="314.00" r="2.2" class="dot put-dot"></circle><circle cx="948.25" cy="314.00" r="2.2" class="dot put-dot"></circle>
    </svg>